# xmcd
#
# Track frame offsets: 
#        150
#        16477
#        34212
#        52767
#        70041
#        86527
#        113319
#        129226
#        145763
#        158835
#        172006
#        189674
#        218551
#
# Disc length: 3118 seconds
#
# Revision: 0
# Processed by: cddbd v1.5.2PL0 Copyright (c) Steve Scherf et al.
# Submitted via: ExactAudioCopy v0.99pb3
#
DISCID=a10c2c0d
DTITLE=Prong - Power Of The Damager
DYEAR=2007
DGENRE=Metal
TTITLE0=Looking For Them
TTITLE1=No Justice
TTITLE2=3rd Option
TTITLE3=Pure Ether
TTITLE4=Power Of The Damager
TTITLE5=The Banishment
TTITLE6=Worst Of It
TTITLE7=Spirit Guide
TTITLE8=Messages Inside Of Me
TTITLE9=Can't Stop The Bleeding
TTITLE10=Bad Fall
TTITLE11=Changing Ending Troubled Times
TTITLE12=Idealistic Types
EXTD=
EXTT0=
EXTT1=
EXTT2=
EXTT3=
EXTT4=
EXTT5=
EXTT6=
EXTT7=
EXTT8=
EXTT9=
EXTT10=
EXTT11=
EXTT12=
PLAYORDER=
